<svg width="410" height="404" viewBox="0 0 410 404" fill="none" xmlns="http://www.w3.org/2000/svg">
<path d="M400 59.5 L216 388.5 C212 395 202 395 198 389 L10.5 60 C6 52 13 43 21 45 L205 78 C206 78 208 78 209 77.6763 L389.119 44.8058 C397.439 43.2894 403.768 52 400 60 Z" fill="url(#paint0_lin)"/>
<path d="M293 1.6 L157 28 C155 29 153 31 153 33 L144 174 C144 178 147 180 150.5 179 L188 171 C192 170 195 173 194 177 L183 232 C182 235 186 239 190 238 L213 230 C217 229 220 233 219 236 L201 323 C200 328 208 331 211 327 L212.5 323.5 L324 102 C325 98 322 94 318 95 L279 103 C275 103 272 100 273 96 L299 8 C300 4 297 1 293 1.6 Z" fill="url(#paint1_lin)"/>
<defs>
<linearGradient id="paint0_lin" x1="6.00017" y1="32.9999" x2="235" y2="344" gradientUnits="userSpaceOnUse">
<stop stop-color="#41d1ff"/>
<stop offset="1" stop-color="#bd34fe"/>
</linearGradient>
<linearGradient id="paint1_lin" x1="194.651" y1="8.81818" x2="236.076" y2="292.989" gradientUnits="userSpaceOnUse">
<stop stop-color="#ffea83"/>
<stop offset="0.08" stop-color="#ffdd35"/>
<stop offset="1" stop-color="#ffa800"/>
</linearGradient>
</defs>
</svg>